<?xml version="1.0" encoding="utf-8"?>
<!-- Generator: Adobe Illustrator 26.0.1, SVG Export Plug-In . SVG Version: 6.00 Build 0)  -->
<svg version="1.1"
	 id="svg8" xmlns:cc="http://creativecommons.org/ns#" xmlns:dc="http://purl.org/dc/elements/1.1/" xmlns:inkscape="http://www.inkscape.org/namespaces/inkscape" xmlns:rdf="http://www.w3.org/1999/02/22-rdf-syntax-ns#" xmlns:sodipodi="http://sodipodi.sourceforge.net/DTD/sodipodi-0.dtd" xmlns:svg="http://www.w3.org/2000/svg"
	 xmlns="http://www.w3.org/2000/svg" xmlns:xlink="http://www.w3.org/1999/xlink" x="0px" y="0px" viewBox="0 0 283.3 346.4"
	 style="enable-background:new 0 0 283.3 346.4;" xml:space="preserve">
<style type="text/css">
	.st0{fill-rule:evenodd;clip-rule:evenodd;fill:#FFFFFF;}
	.st1{fill-rule:evenodd;clip-rule:evenodd;fill:#FFD500;}
	.st2{fill:#C90039;}
</style>
<g>
	<rect y="0.1" class="st0" width="283.3" height="346.3"/>
	<path class="st1" d="M283.3,346.3V121c0-5.9-4.8-10.7-10.7-10.7H10.7C4.8,110.3,0,115.1,0,121v225.4L283.3,346.3z"/>
	<path d="M39,304.5c0.4-22.5,13.4-39.4,34.4-39.4c15.5,0,25.1,8.2,27.2,22.1c1.6,10.7-0.3,17.2-12.7,17.2l-43.6,2.1
		c0.9,30,20.5,40,44.5,39.8H104l-0.1-6.9H89.1c-22.1-0.7-34.6-10.1-35.3-27l40.4-2.1c8.5-0.3,14.7-4.2,14.7-15
		c0-19.1-10.5-37.2-35.4-37.2c-22.8,0-42.4,16.3-42.4,46.7c0,17.1,5.6,32.6,17.1,41.5h13.3C47,339.9,38.6,325.4,39,304.5"/>
	<path d="M137.8,284.7v61.6h9.2v-58.6c5-6,14-10.5,20.8-10.5c8.2,0,12.2,3,12.3,13.3l0.1,55.8h8.8v-56.9c0-12.3-5.7-19.5-20.5-19.5
		C159.7,269.9,150.1,274.6,137.8,284.7"/>
	<path d="M132.4,282.2c12.3-10.6,24.6-17.3,37.3-17.3c16.1,0,25,8,24.7,24.5v56.9h8.8v-57c0.5-18.4-8.8-31.1-31.9-31.1
		c-13.9,0-30.9,6.7-47.7,21.7v66.3h8.8L132.4,282.2L132.4,282.2z"/>
	<path d="M233.2,268.8l5.9-1.4v78.9h8.4l-0.1-85.4c0-2.5-1.4-3.7-4.3-2.9l-18.3,5v83.3h8.4L233.2,268.8L233.2,268.8z"/>
	<path d="M236.1,238.5c6.5,0,11.8-5.3,11.8-11.8s-5.3-11.8-11.8-11.8s-11.8,5.3-11.8,11.8C224.2,233.2,229.5,238.5,236.1,238.5"/>
	<path d="M95.2,288.1c-1.7-11.6-9-18.2-21.9-18.2c-15.9,0-26.7,12.6-28.7,32l42-2C94.7,299.4,96.5,296.7,95.2,288.1 M87.7,288.7
		c0,2.4-1.3,4.4-5.9,4.6l-27.5,1.4c0.8-9.2,7.7-17.5,18.2-17.5C84.2,277.3,87.6,284,87.7,288.7"/>
	<path class="st2" d="M169.2,27.1c0-1.2-1.5-3-2.7-3.6c-7.1-4.2-14.3,1.2-21.4,1.2c-2.7,0-5.4,0.6-7.4-0.9c0-1.2,1.2-1.5,1.2-2.7
		c-1.8,0-3.9-0.6-5.9-0.9c0,0-4.5-0.3-7.2-1.2c-9.8-4.2-19-6.3-30.3-0.9c-3.6,1.5-7.1,3-11,3c-1.8,0,2.7,3.6,2.1,5.3
		c-6,0.9-11.3,2.7-16.4,7.5v0.3c3.6,4.5,8.9,5.1,14.3,5.1c1.8,0,5,4.2,13.4,5.4c12.2,2.4,19.3-4.5,28-0.9c-0.6-1.5-0.6-2.4-0.6-3.6
		c10.1,2.7,18.2,2.4,25.9-1.5C158.2,36.9,161.5,26.8,169.2,27.1"/>
	<path d="M63.2,29.2l8-4.5c1.5,0.3,1.5,1.8,2.4,2.7c2.1-0.6,1.2-3.6,2.4-5.1c1.2,0,1.2,1.8,2.1,2.7c2.1,0,1.5-3.3,2.4-4.8
		c1.2-1.8,4.5-1.2,3.9-4.2l-3-13.4C81,1,80.2,0.3,79.6,0.5c-10.7,3.9-19,7.7-29.2,11.3c-0.9,0.3-2.1,0.7-3.3,0.3L30.8,0
		c0.9,7.1,1.8,13.7,2.4,17.9c0.1,0.8,0,1.2-0.6,1.2c-3.3,0-6.4,2.3-8.3,5.6c-2.8,4.8-5.4,9.2-10.1,11.3c0.9,2.1,2.7,3.3,4.5,3.9
		c1.5,0.6,3,0.3,4.5,1.2c0,0.6-0.3,0.9-0.6,1.5c-3.9,6.8,1,16.1-6.4,21.1c3.3,1.5,8.2,0,10.9-3l0.5,0.3c-2.1,4.8-2.9,10.2-2.6,15.5
		c0,0,0.2,1.2-0.3,2.8c0,0-0.6,1.7-0.9,2.6c9.6-1.6,13.1-13.8,13.9-15.9l0.8,0.2c0,0-3.2,8.9-0.4,12.7c0.6,0.9,1.7,1.7,2.7,1.6
		c1.1-4.3,3.5-9.7,7.4-12.6c3.6,0.3,7.1,2.1,10.7,3.6C61,66.4,56.4,59,56.4,59l0.4-0.3l0.6,0.6c0,0,3,3.3,4.5,4.5
		C63.7,65,69,66.2,72,64.4c1.1-0.6,2.7-2.1,3-3.3c-9.5,0.6-10.1-11.3-14.6-17l0.3-0.3c2.4,1.2,3.6,4.5,6,5.6c0,0,12.5,2.6,13,2.7
		c0.9,0.2,1.2-1.2,1.2-1.2c0.1-0.4,1.3-5.1,0.7-7.4c-1.5-0.9-2.1,1.5-3.3,1.5c-3.3-0.9-5.4-1.2-8.9-2.7l-6-11.9
		C62.8,29.4,63.2,29.2,63.2,29.2 M58.5,21.4c0,2.1-1.5,3.6-3.6,3.6c-1.8,0-3.3-1.5-3.3-3.6s1.5-3.6,3.3-3.6
		C57,17.9,58.5,19.3,58.5,21.4"/>
	<path d="M76.1,128.6c-3.7-0.6-7.9-1.4-11.7-3.4c0,0-0.9-0.5-0.9,0.3v5.6c0,2.2,2,4.8,8.9,4.2c0,0,1.3,2.6-5.3,5.2
		c-2.4,1-1.4,2.6-1.4,2.6s0.9,2,6.5,3.7c-2,3.9-6.7,4.2-5.8,6.5c0,0,0.6,1.7,4.1,2.7c-1.1,3.3-4.3,4.5-5.2,6.4c-1,2,2,3.6,1.8,3.8
		c-5,3.2-8.8,7.6-9.4,9.9c-1.8,5.1-2.8,11-3.9,15.9c-0.4,1.7-2.4,3.1-3.7,3.2c-4.9,0.2-8.6,0-12.9,0c-1.4,0-0.8-1-0.8-1
		c4.5-8.1,14.8-14.7,13.1-24.6C45,142.9,37.2,127.4,32.7,104c-1.7-8.9-1.9-18,1-25.5c0.8,3.7,5.2,7.1,8.8,7
		c1.5-5.1,4.6-13.4,6.7-13.7c2.4-0.3,10.6,3.9,10.6,3.9c2.4-2.3,3-5.6,3.2-8.2c2.7,1.2,5.4,1.8,9,0.9c6.2-1.8,7.1-3.7,9.2-6.1
		c2.4,7.9-1.1,13.2-1.9,16c0,0-0.1,0.4,0,0.6c0.1,0.1,0.3,0.3,0.9,0c2.2-1,4.5-2.8,5.8-3.9c1.6-1.4,6-6.9,6-6.9
		c2.5,3.8,1.9,9.4,0.3,13.1c0,0-0.8,1.4,1,1.1c4.5-0.8,7.8-9.4,11-10.8c0,0,0.3-0.1,0.3,0c0.3,3.8,0.1,9.5,1.7,12.3
		c0,0,0.3,0.8,0.9-0.1c1.7-2.6,4.5-9.5,7.6-10.1c-0.1,4.4,0.9,11,2.9,11.2c1.7,0.2,3.2-4.2,4-6c0.9-2.2,2.1-4,3.3-4
		c0.3,3.9,1.8,9.7,4.9,9.8c1.5,0,1.2-2.7,1.5-4.7c0.6-3.5,2.3-4.5,2.3-4.5c1,3.2,2.2,5.6,4.8,7.3c0.8,0.5,1.8,0.6,1.7-0.8
		c0-3.1,0.6-5.8,1.9-7c0.1,0.5,0.8,1.5,1.3,2.2c1.4,1.9,2.9,2.8,5.1,2.1c1-0.3,1.9-1.5,2-2.4c-1.7-2.5-3.9-6.6-4.2-9.6
		c-0.6-4.5,1.5-8.3,5-10.1c2.7-1.5,6.6-1.8,8.9,0.3c1.5,1.3,2.7,3.2,2.7,5.4c0,1.8-0.8,3.6-2.4,4.4c-1.2,0.6-2.7,0.6-3.9-0.3
		c-1.1-0.8-2-2.4-2.9-3c-0.9,2.1,0.6,4.5,1.8,6c2.5,2.7,5.6,2.1,6.9,1.3c7.7-5.7,6.2-11.4,11-23c1.1-2.6,2.4-5.2,4.1-7.6
		c0.2-0.3,0.4-0.6,0.6-0.9c3.8-5.7,10.3-9.4,17.6-9.4c11.7,0,21.2,9.5,21.2,21.2c0,5.8-2.3,11.1-6.1,14.9c-0.3,0.3-0.7,0.7-1,1
		c-1.6,1.3-1.9,2.6-1.1,3.2c2.4,1.8,3,2.1,4.8,4.2c7.5,8.9,10.7,19.3,14.9,29.7c1.1,2.5,2.6,5.6,4.5,7.4c3.2,3.1,6.1,4.3,10.4,4.8
		c0.4,0-2.3,3.2-0.3,4.5c1.5,0.9,5.9,0.6,7.4-0.3c0.6,4.5-6.4,6.2-5.9,7.8c0.4,1.3,3.6,2.5,7.4,1.9c-0.9,3.4-4.7,3.4-4.8,5.5
		s2,3.1,4.9,2.5c0,0-1.1,1.8-3.5,4.3c-2.7,2.7-1.1,6.2-1.1,6.2c1.1,2.4,2.3,5.2,5.1,7.5c2,1.6,3.5,2.5,4.7,4
		c-7.7,4.1-5.9,11-6.2,14.6c-0.2,1.1-1.2,1.2-1.2,1.2l-15.7,2.4c-1.3,0.2-2.3-0.3-0.8-2c3.8-4.5,8.6-9,11.2-13.8
		c-0.4-1.7-1.3-3.4-2.5-5.3c-5.1-8.2-9.9-15.8-14.6-24.1c-0.5-0.9-2.1-1.2-2.1-1.2c-11.6-2.1-25-5.6-33.6-11.1
		c-0.6-0.2-0.6,0.6-0.6,0.6c0,2.2-0.2,7.3,0.8,8.7c2.8,4.1,10.3,2.1,11.4,2.1c-0.3,2.9-1.9,4.4-4.8,6.2c0,0-0.6,0.3-0.3,0.9
		c0.4,1,3,0.5,5.3-0.3c-1.2,4.5-5.2,4.2-4.9,5.8c0.2,1,1.5,1.8,2.9,1.8c-2.3,3.1-5.6,3.5-5.6,5.8l0.6,10.6c0,0,0,0.3-0.2,0.5
		c-0.2,0.3-0.7,0.4-0.7,0.4l-15.3,3.6c-0.4,0.1-0.9,0-1.2-0.5c-0.4-0.5,0.2-1.3,0.2-1.3l9.8-14.9c0.6-3.3-1.8-5.3-3.3-8
		c-3.3-4.2-6.8-7.5-10.7-9.8c-3.2-4-3.4-8.5-4.1-10.9c-0.3-0.9-1.2-0.5-2.1,0.2c-2.1,2.1-4.1,4.6-5.4,7.4c-0.7,1.4,0.6,2.4,2.4,2.9
		c1.1,0.3,3,0.5,5-0.3c0.3,2.8-3,4.8-5,5.7c0,0-0.7,0.3-0.2,0.7c1.2,1.1,3.3,1.1,4.8,0.8c0,0-0.5,2.7-4.5,5.1
		c-3.2,1.9,2,1.8,2.8,1.4c-0.7,2-3.6,4.5-4.5,6.2c-2,4-0.6,8.9-0.9,13.4c-0.3,0.9-1.2,1.3-2.4,1.5l-16.1,0.6c-1,0-0.9-1.1-0.3-1.8
		l11.3-13.7c0.9-1.2,0-1.9-0.3-2.4c-5-6.5-9.5-13.4-12.7-20.8c-2.4,0.3-6.3,1.5-6.8,3.8c-0.5,2,4.1,2.4,6.2,2.4c0,0,0.3,2.1-5.6,4.2
		c0,0-3.2,1-4.2,2.5c0,0-0.3,0.4,0.1,0.8c1.3,1,4.6,1,5.1,1c-2.4,3.3-9.3,3.1-10.7,4.4c-0.7,0.6,0.8,2,4.9,2c-2,2.7-5.5,2.3-8.6,3.2
		c0,0-1.4,0.3-1,1.1c1.1,2,3.8,1.5,3,2.4c-1.1,1.2-4.1,2-5.8,2.5c-1.4,0.4-2.1,1.3-2.1,1.3c-1.2,1.2-0.8,2.7-1.6,4.7
		c-1.2,3-2.8,6.4-4.9,9c0,0-0.3,0.5-0.8,0.1l-10.7-8.6c-0.9-0.7-0.4-1.8-0.4-1.8c1-2.1,3.2-2.6,5.3-3.8c2.9-1.7,5.8-3.6,8.4-6.5
		c0.6-0.6,0.6-1.3,0.6-1.3c1.2-7.8,3.7-14.9,5.5-22.5c0.5-2.3-2.1-1.8-2.1-1.8c-3.6,0.6-9.3,2.2-18.9,1.3c-0.9-0.1-1.1,0.3-1.8,2
		c-0.9,2.1-2.1,3.6-0.9,5.3c2.2,2.9,8.3,0.6,8.2,0.9c-2.1,5.2-7.7,4.2-10.1,7.2c0,0-0.8,0.9-0.1,1.7c0.7,0.8,3.1,1.1,7,0.1
		c0,0-1.6,3.7-5.1,4.7c-2.9,0.9-4.8,1.3-5.2,2.6c-0.3,1,0.7,1.9,5.2,1.4c0,0-1.1,3.4-5.2,4.6c-2.6,0.7-3.1,2.4-3.8,3.7
		c-1.7,3.2-2.1,7.7-4.3,10.7c0,0-0.3,0.5-1-0.2l-9.2-8.1c-0.3-0.3-0.5-0.6-0.5-0.6c-0.9-1.2,1.7-2.5,2.7-3.3
		c2.4-1.9,6.3-3.6,6.8-7.4c0.7-5.7-1.6-9.1-3.1-14c-1.1-3.5-1.1-7.9-0.9-11.4C76.6,128.7,76.1,128.6,76.1,128.6 M167.9,74.5
		c-0.2,0.2-0.3,0.5,0.1,0.5c3.3,0,6.8-2.1,9.8-4.2c3.8-2.5,7.1-6.6,9.7-10.5c2.1,2,5,3.2,8.1,3.2c6.6,0,11.9-5.3,11.9-11.9
		s-5.3-12-11.9-12c-0.3,0-0.9,0-1.2,0c-5.3,0.3-8.9,3.3-12.5,9.8c-3,5.7-6.8,17.6-13.7,24.7C168.3,74.1,168.1,74.2,167.9,74.5"/>
</g>
</svg>
